<svg width="43" height="39" viewBox="0 0 43 39" fill="none" xmlns="http://www.w3.org/2000/svg">
<path d="M42.9696 11.8785C42.7078 8.87351 40.6638 6.30834 38.5842 4.30087C36.7398 2.52007 32.654 -0.438953 32.1782 0.0547789C31.7201 0.506993 36.5247 3.815 37.9177 6.39587C38.3247 7.12102 38.6463 7.89194 38.8759 8.69284C39.3196 10.3121 39.1665 12.195 38.0752 13.4618C37.4541 14.1834 36.5801 14.6479 35.6696 14.9071C34.4008 15.2662 33.0776 15.2348 31.7733 15.3145C30.7663 12.4441 29.0583 10.9831 26.7692 10.6352C27.0788 10.5467 27.399 10.5018 27.7207 10.5017C27.7851 10.5017 27.8483 10.5017 27.9115 10.5017C27.4718 10.3092 26.9976 10.2103 26.5185 10.2111C26.1662 10.2111 25.816 10.2644 25.4793 10.3693C25.2247 10.3422 24.9689 10.3287 24.7129 10.3289H24.6375C25.4478 9.83349 26.3769 9.5723 27.3237 9.57371C27.4191 9.57371 27.5134 9.57371 27.6065 9.58156C26.5649 9.12539 25.4044 9.0263 24.3019 9.29938C23.1994 9.57246 22.2154 10.2027 21.4999 11.0942C20.7849 10.2041 19.802 9.57461 18.7009 9.30157C17.5998 9.02853 16.4407 9.12685 15.3999 9.58156C15.4931 9.57595 15.5874 9.57371 15.6827 9.57371C16.6295 9.5723 17.5586 9.83349 18.3689 10.3289H18.2935C18.0372 10.3288 17.781 10.3422 17.526 10.3693C17.188 10.2639 16.8361 10.2105 16.4824 10.2111C16.0032 10.2105 15.529 10.3098 15.0894 10.5028C15.1515 10.5028 15.2158 10.5028 15.279 10.5028C15.6012 10.5028 15.9217 10.5478 16.2317 10.6364C13.9481 10.9842 12.239 12.4452 11.2275 15.3111C9.92214 15.2314 8.599 15.2628 7.33132 14.9038C6.41965 14.6446 5.5468 14.18 4.9246 13.4585C3.83437 12.1916 3.68354 10.3087 4.12495 8.68948C4.35444 7.88977 4.67567 7.11999 5.08209 6.39587C6.47622 3.815 11.2863 0.506993 10.8227 0.0547789C10.3469 -0.438953 6.26105 2.52344 4.41553 4.30087C2.33711 6.30834 0.293063 8.87351 0.0302102 11.8785C-0.243734 15.0205 1.37331 18.3419 3.74676 20.3135C5.29948 21.6084 7.15719 22.2772 9.09366 22.5723C8.97609 22.5723 8.85742 22.5791 8.73875 22.5791C7.51863 22.5808 6.30905 22.3506 5.17304 21.9002C5.73381 22.6193 6.4345 23.2143 7.23174 23.6484C8.02897 24.0825 8.90579 24.3464 9.80791 24.4238C9.42313 25.4471 9.32797 26.5586 9.53309 27.6335C9.73822 28.7085 10.2355 29.7043 10.9691 30.5091C10.7738 29.9129 10.6746 29.2889 10.6752 28.6609C10.6755 28.1887 10.7313 27.7182 10.8416 27.2594C10.8294 27.4367 10.8227 27.6162 10.8227 27.798C10.8229 28.1889 10.8537 28.5791 10.9148 28.965V28.9706C10.964 29.2778 11.0329 29.5814 11.1211 29.8796L11.2131 30.2869C11.2789 30.562 11.3641 30.832 11.4682 31.0948C11.4649 31.2853 11.4786 31.4757 11.5092 31.6637C11.6373 32.462 12.0593 33.1816 12.6904 33.6779C12.5327 33.3739 12.4245 33.0462 12.3699 32.7073C12.3699 32.6815 12.3632 32.6557 12.3599 32.6299C13.1474 33.6141 14.2352 34.3063 15.4532 34.5981C15.9245 34.8561 15.9877 35.2242 16.0864 35.8672C16.1939 36.4971 16.3618 37.115 16.5877 37.7119C16.5877 37.7119 16.6632 38.1944 17.8077 38.6422C18.7982 39.0271 20.9243 39.008 21.4943 38.9945C22.0655 39.008 24.1916 39.0271 25.1809 38.6422C26.3311 38.1933 26.4009 37.7119 26.4009 37.7119C26.627 37.1149 26.7952 36.4971 26.9034 35.8672C27.0021 35.2242 27.0642 34.8573 27.5355 34.5981C28.7536 34.306 29.8417 33.6139 30.6299 32.6299L30.6199 32.7073C30.5648 33.046 30.4566 33.3737 30.2994 33.6779C30.9297 33.181 31.3516 32.4617 31.4805 31.6637C31.5106 31.4757 31.5244 31.2853 31.5216 31.0948C31.6258 30.8322 31.7107 30.5622 31.7756 30.2869L31.8687 29.8796C31.9564 29.5813 32.0253 29.2777 32.075 28.9706V28.965C32.137 28.5792 32.1681 28.1889 32.1682 27.798C32.1682 27.6162 32.1615 27.4367 32.1482 27.2594C32.4078 28.3347 32.364 29.4622 32.0218 30.5135C32.7558 29.709 33.2532 28.7131 33.4582 27.638C33.6631 26.563 33.5674 25.4513 33.1819 24.4283C34.084 24.351 34.9609 24.0872 35.7582 23.6531C36.5554 23.219 37.2561 22.6239 37.8168 21.9047C36.6811 22.355 35.4719 22.5853 34.2522 22.5835C34.1335 22.5835 34.0148 22.5835 33.8972 22.5768C35.8326 22.2817 37.6848 21.6129 39.2441 20.318C41.6276 18.3419 43.2446 15.0205 42.9696 11.8785Z" fill="#FCFCF5"/>
</svg>
